<mxfile host="app.diagrams.net" modified="2022-11-16T02:58:28.543Z" agent="5.0 (Windows NT 10.0; Win64; x64) AppleWebKit/537.36 (KHTML, like Gecko) Chrome/107.0.0.0 Safari/537.36 Edg/107.0.1418.42" etag="rQIKtoZ-11ziBrlDXXS6" version="20.5.3" type="github">
  <diagram id="_SQ7_BC6pr5bAg1cqgtU" name="第 1 页">
    <mxGraphModel dx="731" dy="428" grid="0" gridSize="10" guides="1" tooltips="1" connect="1" arrows="1" fold="1" page="1" pageScale="1" pageWidth="827" pageHeight="1169" math="0" shadow="0">
      <root>
        <mxCell id="0" />
        <mxCell id="1" parent="0" />
        <mxCell id="pzy8IwuIlFmdNVCHFb4n-60" value="" style="rounded=0;whiteSpace=wrap;html=1;" vertex="1" parent="1">
          <mxGeometry x="128" y="113" width="466" height="324" as="geometry" />
        </mxCell>
        <mxCell id="pzy8IwuIlFmdNVCHFb4n-3" value="学生提交反馈" style="rounded=1;whiteSpace=wrap;html=1;" vertex="1" parent="1">
          <mxGeometry x="234" y="312" width="78" height="54" as="geometry" />
        </mxCell>
        <mxCell id="pzy8IwuIlFmdNVCHFb4n-4" value="" style="shape=waypoint;sketch=0;fillStyle=solid;size=6;pointerEvents=1;points=[];fillColor=none;resizable=0;rotatable=0;perimeter=centerPerimeter;snapToPoint=1;strokeWidth=6;" vertex="1" parent="1">
          <mxGeometry x="131" y="319" width="40" height="40" as="geometry" />
        </mxCell>
        <mxCell id="pzy8IwuIlFmdNVCHFb4n-5" value="" style="endArrow=classic;html=1;rounded=0;exitX=0.997;exitY=0.504;exitDx=0;exitDy=0;exitPerimeter=0;entryX=0;entryY=0.5;entryDx=0;entryDy=0;" edge="1" parent="1" source="pzy8IwuIlFmdNVCHFb4n-4" target="pzy8IwuIlFmdNVCHFb4n-3">
          <mxGeometry width="50" height="50" relative="1" as="geometry">
            <mxPoint x="426" y="420" as="sourcePoint" />
            <mxPoint x="476" y="370" as="targetPoint" />
          </mxGeometry>
        </mxCell>
        <mxCell id="pzy8IwuIlFmdNVCHFb4n-7" value="工作人员&lt;br&gt;接收反馈" style="rounded=1;whiteSpace=wrap;html=1;" vertex="1" parent="1">
          <mxGeometry x="381" y="219" width="78" height="54" as="geometry" />
        </mxCell>
        <mxCell id="pzy8IwuIlFmdNVCHFb4n-8" value="" style="endArrow=classic;html=1;rounded=0;exitX=1;exitY=0.5;exitDx=0;exitDy=0;entryX=0.25;entryY=1;entryDx=0;entryDy=0;" edge="1" parent="1" source="pzy8IwuIlFmdNVCHFb4n-3" target="pzy8IwuIlFmdNVCHFb4n-7">
          <mxGeometry width="50" height="50" relative="1" as="geometry">
            <mxPoint x="467" y="419" as="sourcePoint" />
            <mxPoint x="276" y="273" as="targetPoint" />
          </mxGeometry>
        </mxCell>
        <mxCell id="pzy8IwuIlFmdNVCHFb4n-48" value="工作人员&lt;br&gt;处理反馈" style="rounded=1;whiteSpace=wrap;html=1;" vertex="1" parent="1">
          <mxGeometry x="494" y="219" width="78" height="54" as="geometry" />
        </mxCell>
        <mxCell id="pzy8IwuIlFmdNVCHFb4n-49" value="" style="endArrow=classic;html=1;rounded=0;exitX=1;exitY=0.5;exitDx=0;exitDy=0;entryX=0;entryY=0.5;entryDx=0;entryDy=0;" edge="1" parent="1" source="pzy8IwuIlFmdNVCHFb4n-7" target="pzy8IwuIlFmdNVCHFb4n-48">
          <mxGeometry width="50" height="50" relative="1" as="geometry">
            <mxPoint x="286" y="322" as="sourcePoint" />
            <mxPoint x="286" y="283" as="targetPoint" />
          </mxGeometry>
        </mxCell>
        <mxCell id="pzy8IwuIlFmdNVCHFb4n-50" value="管理人员&lt;br&gt;接收反馈" style="rounded=1;whiteSpace=wrap;html=1;" vertex="1" parent="1">
          <mxGeometry x="234" y="228" width="78" height="54" as="geometry" />
        </mxCell>
        <mxCell id="pzy8IwuIlFmdNVCHFb4n-51" value="管理人员&lt;br&gt;反馈意见" style="rounded=1;whiteSpace=wrap;html=1;" vertex="1" parent="1">
          <mxGeometry x="234" y="140" width="78" height="54" as="geometry" />
        </mxCell>
        <mxCell id="pzy8IwuIlFmdNVCHFb4n-52" value="" style="endArrow=classic;html=1;rounded=0;exitX=0.5;exitY=0;exitDx=0;exitDy=0;entryX=0.5;entryY=1;entryDx=0;entryDy=0;" edge="1" parent="1" source="pzy8IwuIlFmdNVCHFb4n-50" target="pzy8IwuIlFmdNVCHFb4n-51">
          <mxGeometry width="50" height="50" relative="1" as="geometry">
            <mxPoint x="286" y="511" as="sourcePoint" />
            <mxPoint x="286" y="472" as="targetPoint" />
          </mxGeometry>
        </mxCell>
        <mxCell id="pzy8IwuIlFmdNVCHFb4n-53" value="" style="endArrow=classic;html=1;rounded=0;exitX=0.5;exitY=0;exitDx=0;exitDy=0;entryX=0.5;entryY=1;entryDx=0;entryDy=0;" edge="1" parent="1" source="pzy8IwuIlFmdNVCHFb4n-3" target="pzy8IwuIlFmdNVCHFb4n-50">
          <mxGeometry width="50" height="50" relative="1" as="geometry">
            <mxPoint x="410" y="376" as="sourcePoint" />
            <mxPoint x="252" y="292" as="targetPoint" />
          </mxGeometry>
        </mxCell>
        <mxCell id="pzy8IwuIlFmdNVCHFb4n-57" value="" style="endArrow=classic;html=1;rounded=0;exitX=0.5;exitY=1;exitDx=0;exitDy=0;entryX=0.5;entryY=0;entryDx=0;entryDy=0;" edge="1" parent="1" source="pzy8IwuIlFmdNVCHFb4n-48" target="pzy8IwuIlFmdNVCHFb4n-58">
          <mxGeometry width="50" height="50" relative="1" as="geometry">
            <mxPoint x="351" y="323" as="sourcePoint" />
            <mxPoint x="436" y="318" as="targetPoint" />
          </mxGeometry>
        </mxCell>
        <mxCell id="pzy8IwuIlFmdNVCHFb4n-58" value="学生查看&lt;br&gt;反馈结果" style="rounded=1;whiteSpace=wrap;html=1;" vertex="1" parent="1">
          <mxGeometry x="494" y="324" width="78" height="54" as="geometry" />
        </mxCell>
        <mxCell id="pzy8IwuIlFmdNVCHFb4n-59" value="" style="endArrow=classic;html=1;rounded=0;exitX=1;exitY=0.5;exitDx=0;exitDy=0;entryX=0.25;entryY=0;entryDx=0;entryDy=0;" edge="1" parent="1" source="pzy8IwuIlFmdNVCHFb4n-51" target="pzy8IwuIlFmdNVCHFb4n-7">
          <mxGeometry width="50" height="50" relative="1" as="geometry">
            <mxPoint x="351" y="323" as="sourcePoint" />
            <mxPoint x="401" y="273" as="targetPoint" />
          </mxGeometry>
        </mxCell>
      </root>
    </mxGraphModel>
  </diagram>
</mxfile>
